<svg width="512" height="512" viewBox="0 0 512 512" fill="none" xmlns="http://www.w3.org/2000/svg">
  <rect width="512" height="512" rx="64" fill="#1f2937"/>
  <path d="M256 64C362.039 64 448 149.961 448 256C448 362.039 362.039 448 256 448C149.961 448 64 362.039 64 256C64 149.961 149.961 64 256 64Z" fill="#3b82f6"/>
  <path d="M320 160V320C320 337.673 305.673 352 288 352C270.327 352 256 337.673 256 320V192L192 224V352C192 369.673 177.673 384 160 384C142.327 384 128 369.673 128 352C128 334.327 142.327 320 160 320C169.941 320 178.824 324.706 184.944 332.056L192 224V160L320 160Z" fill="white"/>
  <circle cx="288" cy="320" r="24" fill="#1f2937"/>
  <circle cx="160" cy="352" r="24" fill="#1f2937"/>
</svg>
